<?xml version="1.0" encoding="UTF-8" standalone="no"?><!DOCTYPE svg PUBLIC "-//W3C//DTD SVG 1.1//EN" "http://www.w3.org/Graphics/SVG/1.1/DTD/svg11.dtd"><svg width="100%" height="100%" viewBox="0 0 500 119" version="1.1" xmlns="http://www.w3.org/2000/svg" xmlns:xlink="http://www.w3.org/1999/xlink" xml:space="preserve" xmlns:serif="http://www.serif.com/" style="fill-rule:evenodd;clip-rule:evenodd;stroke-linejoin:round;stroke-miterlimit:2;"><text x="-6px" y="117.167px" style="font-family:'Rajdhani-Medium', 'Rajdhani';font-weight:500;font-size:166.667px;">Johan</text><path d="M430.646,73.535l-0.137,0.183l-0.117,0.213c-0.048,0.104 -0.085,0.214 -0.11,0.328l-0.036,0.236l-0.004,0.128l-0,6.896c-0,0.601 0.317,1.127 0.794,1.42c-0.477,0.293 -0.794,0.82 -0.794,1.42c-0,19.027 15.447,34.474 34.474,34.474c19.026,0 34.474,-15.447 34.474,-34.474l-0,-43.511c-0,-0.715 -0.456,-1.351 -1.134,-1.579c-0,-0 -2.866,-0.968 -7.224,-2.145c-0.501,-0.136 -1.036,-0.03 -1.448,0.285c-0.412,0.316 -0.654,0.805 -0.654,1.324l0,45.626c0,13.254 -10.76,24.015 -24.014,24.015c-13.254,-0 -24.015,-10.761 -24.015,-24.015c0,-0.458 -0.184,-0.872 -0.483,-1.173l43.053,-0c0.92,-0 1.666,-0.746 1.666,-1.667l0,-6.896c0,-0.921 -0.746,-1.667 -1.666,-1.667l-36.046,0c14.041,-17.044 36.752,-27.837 36.752,-27.837c0.58,-0.275 0.95,-0.86 0.951,-1.502l0.009,-6.631c0.002,-0.784 -0.543,-1.462 -1.308,-1.631c-5.918,-1.301 -12.793,-2.415 -18.913,-2.415c-14.535,0 -33.34,6.329 -33.34,6.329c-0.678,0.228 -1.134,0.864 -1.134,1.579l-0,2.767c-0,0.92 0.746,1.666 1.666,1.666l31.119,0l-0.001,0.001c-15.37,8.936 -32.371,28.242 -32.371,28.242l-0.009,0.011Zm1.262,10.824l7.126,0c0,14.174 11.508,25.681 25.682,25.681c14.174,0 25.681,-11.507 25.681,-25.681l-0,-45.626c4.299,1.161 7.126,2.115 7.126,2.115l0,43.511c0,18.107 -14.7,32.808 -32.807,32.808c-18.107,-0 -32.808,-14.701 -32.808,-32.808Zm51.363,-9.736l-0,6.896l-51.363,0l0,-6.896l51.363,-0Zm-12.897,-31.008l-38.466,-0l0,-2.767c0,0 18.505,-6.241 32.808,-6.241c6.004,-0 12.749,1.1 18.555,2.376l-0.01,6.632c0,-0 -25.49,12.132 -39.454,31.008l-11.899,-0c0,-0 22.108,-25.208 38.466,-31.008Z"/></svg>