<?xml version="1.0" encoding="UTF-8" standalone="no"?><!DOCTYPE svg PUBLIC "-//W3C//DTD SVG 1.1//EN" "http://www.w3.org/Graphics/SVG/1.1/DTD/svg11.dtd"><svg width="100%" height="100%" viewBox="0 0 2084 496" version="1.1" xmlns="http://www.w3.org/2000/svg" xmlns:xlink="http://www.w3.org/1999/xlink" xml:space="preserve" xmlns:serif="http://www.serif.com/" style="fill-rule:evenodd;clip-rule:evenodd;stroke-linejoin:round;stroke-miterlimit:2;"><text x="-25px" y="488.196px" style="font-family:'Rajdhani-Medium', 'Rajdhani';font-weight:500;font-size:694.446px;fill:#047cdc;">Johan</text><path d="M1794.36,306.396l-0.57,0.762l-0.488,0.888c-0.2,0.433 -0.354,0.892 -0.458,1.367l-0.15,0.983l-0.017,0.533l0,28.733c0,2.505 1.321,4.696 3.308,5.917c-1.987,1.221 -3.308,3.417 -3.308,5.917c0,79.279 64.363,143.642 143.642,143.642c79.275,-0 143.641,-64.363 143.641,-143.642l0,-181.296c0,-2.979 -1.9,-5.629 -4.725,-6.579c0,-0 -11.941,-4.033 -30.1,-8.938c-2.087,-0.566 -4.316,-0.125 -6.033,1.188c-1.717,1.317 -2.725,3.354 -2.725,5.517l0,190.108c0,55.225 -44.833,100.062 -100.058,100.062c-55.225,0 -100.063,-44.837 -100.063,-100.062c0,-1.908 -0.766,-3.633 -2.012,-4.888l179.387,0c3.834,0 6.942,-3.108 6.942,-6.946l-0,-28.733c-0,-3.837 -3.108,-6.946 -6.942,-6.946l-150.191,0c58.504,-71.016 153.133,-115.987 153.133,-115.987c2.417,-1.146 3.958,-3.583 3.962,-6.258l0.038,-27.63c0.008,-3.266 -2.263,-6.091 -5.45,-6.795c-24.658,-5.421 -53.304,-10.063 -78.804,-10.063c-60.563,0 -138.917,26.371 -138.917,26.371c-2.825,0.95 -4.725,3.6 -4.725,6.579l0,11.529c0,3.834 3.108,6.942 6.942,6.942l129.662,-0l-0.004,0.004c-64.042,37.233 -134.879,117.675 -134.879,117.675l-0.038,0.046Zm5.259,45.1l29.691,-0c0,59.058 47.95,107.004 107.009,107.004c59.058,0 107.004,-47.946 107.004,-107.004l-0,-190.109c17.912,4.838 29.691,8.813 29.691,8.813l0,181.296c0,75.446 -61.25,136.7 -136.695,136.7c-75.446,-0 -136.7,-61.254 -136.7,-136.7Zm214.012,-40.567l0,28.733l-214.012,0l-0,-28.733l214.012,0Zm-53.737,-129.2l-160.275,0l-0,-11.529c-0,0 77.104,-26.004 136.7,-26.004c25.016,-0 53.121,4.583 77.312,9.9l-0.041,27.633c-0,0 -106.209,50.55 -164.392,129.2l-49.579,0c-0,0 92.116,-105.033 160.275,-129.2Z" style="fill:#ffd000;"/></svg>